<svg width="32" height="26" viewBox="0 0 32 26" fill="none" xmlns="http://www.w3.org/2000/svg">
<path d="M20.7363 24.1535C21.4754 23.2674 22.6598 21.1969 23.7752 19.1888C24.8943 17.174 25.4828 14.9633 25.7811 11.9199C26.0018 9.66845 27.7091 8.13297 28.7465 6.34971C29.7851 4.5645 30.3806 3.23065 30.6055 2.41583C30.7067 2.0492 30.0957 1.74794 29.6482 1.59655C27.959 1.02507 26.0883 2.18429 23.9355 2.48262C21.8165 2.77626 19.5608 3.52007 17.5527 4.04103C15.4362 4.59009 13.621 5.30112 11.8378 5.52597C9.45663 5.82622 6.20298 6.19164 3.52919 6.41649C2.47014 6.50556 1.59453 7.08216 1.14705 7.52742C0.181447 8.48822 4.25274 8.71181 6.03601 9.45763C6.89985 9.81891 7.81928 10.052 8.63411 10.4951C9.50785 10.9702 9.60478 13.7433 9.82518 16.7866C9.89818 17.7946 10.4864 17.6259 10.9339 17.4768C12.7171 16.8823 14.4937 16.2902 16.277 15.8427C17.1499 15.6236 18.0603 16.4326 18.8016 17.0983C19.4005 18.9528 19.5475 20.5869 19.917 21.4752C20.1396 21.9227 20.4335 22.3635 21.1816 23.7082" stroke="#162456" stroke-width="2" stroke-linecap="round"/>
<path d="M10.4951 10.7954C11.3812 10.6485 13.1578 10.0563 14.941 9.46185C16.7243 8.86743 18.5009 8.27523 20.2107 7.1643C21.8859 6.07588 23.3988 4.86453 25.182 4.04525C25.6295 3.82262 26.0703 3.52875 26.5178 3.30389C26.9653 3.07903 27.4061 2.9321 27.8603 2.33545" stroke="#162456" stroke-width="2" stroke-linecap="round"/>
<path d="M19.4004 14.8031C20.2865 13.4718 21.7692 11.6952 24.5098 8.87666C26.3732 7.2381 27.5576 5.46151 28.8199 3.53131C29.1917 2.93688 29.6325 2.2022 30.5319 1" stroke="#162456" stroke-width="2" stroke-linecap="round"/>
</svg>
